<svg xmlns="http://www.w3.org/2000/svg" viewBox="-27.4 -28.3 53.9 46.2" width="216" height="185"><path d="M0.96 13.55Q-9.76 6.28 -21.03 -0.09Q-21.78 -4.8 -22.35 -9.53Q-10.71 -2.24 1.94 3.13Q1.27 8.32 0.96 13.55ZM-21.03 -0.09l-2.1 -1.3M0.96 13.55l1.53 0.95M-22.35 -9.53l-0.05 -0.36M-21.03 -0.09l0.12 0.83M1.94 3.13l2.39 1.25M-22.35 -9.53l-1.85 -0.96M0.96 13.55l-0.08 0.87M1.94 3.13l0.09 -0.96" fill="#ebe7dd" stroke="#3e12b6" stroke-width="1.2" stroke-linejoin="round"/><path d="M21.2 1.22Q11.02 7.12 1.06 13.4Q1.3 8.22 1.9 3.07Q12.36 -2.3 22.51 -8.24Q22.07 -3.48 21.2 1.22ZM1.06 13.4l-1.68 1.01M21.2 1.22l1.57 -0.95M1.9 3.07l0.08 -1.02M1.06 13.4l-0.06 0.72M22.51 -8.24l1.3 -0.71M1.9 3.07l-1.9 1.04M21.2 1.22l-0.12 0.9M22.51 -8.24l0.1 -0.75" fill="#ebe7dd" stroke="#3e12b6" stroke-width="1.2" stroke-linejoin="round"/><path d="M2.68 13.92Q-10.75 7.06 -23.38 -1.18" fill="none" stroke="#3e12b6" stroke-width="1.2" stroke-linecap="round"/><path d="M21.66 -0.02Q10.95 6.8 -0.34 12.6" fill="none" stroke="#3e12b6" stroke-width="1.2" stroke-linecap="round"/><path d="M-4.81 7.15Q-6.15 6.29 -7.43 5.34Q-7.44 2.78 -7.46 0.22Q-5.91 1.14 -4.42 2.15Q-4.49 4.66 -4.81 7.15" fill="#3e12b6" stroke="#3e12b6" stroke-width="0.8" stroke-linecap="round" stroke-linejoin="round"/><path d="M-12.46 2.64Q-14 1.74 -15.38 0.61Q-15.2 -1.92 -15.17 -4.45Q-13.77 -3.39 -12.33 -2.37Q-12.44 0.13 -12.46 2.64" fill="#3e12b6" stroke="#3e12b6" stroke-width="0.8" stroke-linecap="round" stroke-linejoin="round"/><path d="M17.12 1.87Q15.59 2.57 14.08 3.33Q14.34 0.83 14.21 -1.68Q15.56 -2.34 16.86 -3.08Q17.11 -0.61 17.12 1.87" fill="#3e12b6" stroke="#3e12b6" stroke-width="0.8" stroke-linecap="round" stroke-linejoin="round"/><path d="M9.06 6.33Q7.58 7.11 6.23 8.09Q6.47 5.55 6.38 3Q7.86 2.06 9.43 1.3Q9.2 3.81 9.06 6.33" fill="#3e12b6" stroke="#3e12b6" stroke-width="0.8" stroke-linecap="round" stroke-linejoin="round"/><path d="M-7.75 7.16Q-8.06 3.66 -7.9 0.15Q-9.89 -1.06 -11.96 -2.14Q-12.09 1.26 -11.85 4.66" fill="none" stroke="#9b9486" stroke-width="1" stroke-linecap="round"/><path d="M1.94 3.13Q-10.71 -2.24 -22.35 -9.53Q-19.17 -13.14 -15.97 -16.73Q-7.46 -13.24 0.41 -8.49Q0.86 -2.64 1.94 3.13ZM-22.35 -9.53l-0.93 -0.49M1.94 3.13l2.24 1.17M-15.97 -16.73l0.45 -0.51M-22.35 -9.53l-0.48 0.55M0.41 -8.49l1.56 0.78M-15.97 -16.73l-0.6 -0.3M1.94 3.13l0.15 1.14M0.41 -8.49l-0.08 -0.59" fill="#ebe7dd" stroke="#3e12b6" stroke-width="1.2" stroke-linejoin="round"/><path d="M1.53 0.45Q1.28 1.31 0.94 2.15M1.2 -4.23Q0.45 -1.61 -0.56 0.94M0.66 -7.53Q-0.98 -3.85 -2.6 -0.17M-1.17 -7.83Q-2.65 -4.49 -4.33 -1.25M-2.93 -9.14Q-4.39 -5.76 -5.65 -2.3M-4.49 -9.75Q-6.02 -6.22 -7.64 -2.75M-6.51 -10.36Q-8 -7.14 -9.14 -3.78M-7.64 -12.16Q-9.43 -8.56 -10.97 -4.85M-9.75 -12.87Q-10.89 -9.43 -12.23 -6.07M-11.17 -13.99Q-12.11 -10.25 -13.62 -6.69M-12.68 -14.47Q-14.11 -10.96 -15.94 -7.63M-14.65 -15.47Q-16.01 -12.15 -17.1 -8.74M-16.78 -14.67Q-17.71 -12.27 -18.77 -9.93M-20.14 -12.01Q-20.42 -11.13 -20.71 -10.24" fill="none" stroke="#3e12b6" stroke-width="0.7" stroke-linecap="round"/><path d="M22.51 -8.24Q12.36 -2.3 1.9 3.07Q0.94 -2.6 0.59 -8.35Q7.82 -12.08 15.33 -15.22Q19.02 -11.84 22.51 -8.24ZM1.9 3.07l-2.03 1.11M22.51 -8.24l1.64 -0.9M0.59 -8.35l-0.12 -1.09M1.9 3.07l0.12 1.05M15.33 -15.22l1 -0.46M0.59 -8.35l-0.74 0.35M22.51 -8.24l0.45 0.44M15.33 -15.22l-0.17 -0.16" fill="#ebe7dd" stroke="#3e12b6" stroke-width="1.2" stroke-linejoin="round"/><path d="M20.16 -10Q20.5 -9.28 20.79 -8.55M17.07 -13.25Q18.1 -10.44 18.83 -7.54M14.38 -13.98Q15.52 -10.27 17.17 -6.76M12.96 -13.05Q14.22 -9.3 15.28 -5.48M10.97 -11.8Q12.57 -8.35 13.99 -4.81M9.28 -10.55Q10.85 -7.61 11.94 -4.46M8.02 -9.43Q9.48 -6.41 10.84 -3.34M5.83 -9.35Q7.13 -5.67 8.7 -2.09M4.3 -7.86Q5.68 -4.38 7.43 -1.07M3.04 -7.57Q4.09 -4 5.22 -0.46M1.88 -4.06Q2.84 -1.61 4.07 0.72M1.85 0.55Q2.09 1.35 2.37 2.14" fill="none" stroke="#3e12b6" stroke-width="0.7" stroke-linecap="round"/><path d="M0.77 -8.2Q-7.13 -13.15 -15.69 -16.83Q-9.59 -18.83 -3.53 -20.93Q-0.1 -18.98 3.16 -16.77Q1.83 -12.52 0.77 -8.2ZM-15.69 -16.83l-1.17 -0.61M0.77 -8.2l0.83 0.44M-3.53 -20.93l1.05 -0.35M-15.69 -16.83l-0.45 0.15M3.16 -16.77l0.59 0.37M-3.53 -20.93l-0.35 -0.22M0.77 -8.2l-0.23 0.82M3.16 -16.77l0.21 -0.76" fill="#ebe7dd" stroke="#3e12b6" stroke-width="1.2" stroke-linejoin="round"/><path d="M1.81 -9.08Q1.4 -8.55 0.93 -8.06M2.65 -12.62Q1.02 -10.86 -0.47 -8.98M3.82 -15.58Q0.83 -13 -2.03 -10.28M1.88 -16.95Q-0.66 -13.77 -3.55 -10.92M0.3 -17.76Q-2.74 -15.02 -5.48 -11.98M-1.58 -18.95Q-4.34 -15.88 -7.52 -13.25M-3.46 -19.15Q-6.12 -16.31 -9.17 -13.89M-5.16 -20.07Q-8 -17.75 -10.66 -15.23M-9.14 -18.89Q-10.59 -17.33 -12.27 -16.02M-13.04 -17.71Q-13.5 -17.2 -14.01 -16.73" fill="none" stroke="#3e12b6" stroke-width="0.7" stroke-linecap="round"/><path d="M-1.13 -24.02Q7.03 -19.55 15.27 -15.21Q9.2 -15.89 3.16 -16.77Q-0.1 -18.98 -3.53 -20.93Q-2.26 -22.42 -1.13 -24.02ZM15.27 -15.21l1.11 0.6M-1.13 -24.02l-0.38 -0.2M3.16 -16.77l-1.07 -0.14M15.27 -15.21l0.28 0.04M-3.53 -20.93l-0.58 -0.36M3.16 -16.77l0.59 0.37" fill="#ebe7dd" stroke="#3e12b6" stroke-width="1.2" stroke-linejoin="round"/><path d="M-1.85 -24.11Q-1.41 -24.22 -0.96 -24.27M-2.71 -22.7Q-1.03 -23.06 0.65 -23.42M-3.28 -21.3Q-0.63 -21.87 1.98 -22.61M-1.8 -20.32Q0.81 -20.78 3.4 -21.35M0.09 -19.79Q2.86 -20.05 5.63 -20.35M1.71 -18.73Q4.35 -19.1 7.02 -19.31M3.72 -17.65Q6.18 -18.03 8.61 -18.56M5.37 -16.55Q7.84 -17.05 10.27 -17.71M9.26 -16.2Q10.69 -16.39 12.13 -16.51M12.97 -15.53Q13.5 -15.64 14.03 -15.68" fill="none" stroke="#3e12b6" stroke-width="0.7" stroke-linecap="round"/><path d="M15.21 -15.2Q7.93 -11.92 0.95 -8.06Q1.99 -12.45 3.31 -16.77Q9.24 -15.89 15.21 -15.2ZM0.95 -8.06l-1.36 0.68M15.21 -15.2l0.33 -0.17M3.31 -16.77l0.21 -0.77M0.95 -8.06l-0.12 0.44M15.21 -15.2l0.8 0.11M3.31 -16.77l-1.05 -0.14" fill="#ebe7dd" stroke="#3e12b6" stroke-width="1.2" stroke-linejoin="round"/><path d="M10.94 -15.67Q11.71 -14.74 12.43 -13.76M8.35 -15.9Q9.61 -14.56 10.68 -13.07M5.81 -16.03Q7.54 -14.25 8.99 -12.24M3.94 -15.15Q5.67 -13.26 7.23 -11.22M3.26 -12.8Q4.35 -11.38 5.6 -10.1M2.77 -10.66Q3.41 -9.89 4.07 -9.11" fill="none" stroke="#3e12b6" stroke-width="0.7" stroke-linecap="round"/><path d="M-15.54 -16.88Q-8.62 -20.98 -1.24 -24.17Q-2.34 -22.52 -3.6 -20.99Q-9.55 -18.89 -15.54 -16.88ZM-1.24 -24.17l0.49 -0.25M-15.54 -16.88l-0.53 0.27M-15.54 -16.88l-0.85 0.29M-3.6 -20.99l0.62 -0.21" fill="#ebe7dd" stroke="#3e12b6" stroke-width="1.2" stroke-linejoin="round"/><path d="M-10.89 -18.57Q-11.66 -18.56 -12.42 -18.56M-8.29 -19.6Q-9.46 -19.55 -10.63 -19.41M-5.49 -20.78Q-7.3 -20.68 -9.11 -20.54M-4.07 -21.79Q-5.61 -21.42 -7.18 -21.26M-3.37 -22.5Q-4.47 -22.52 -5.58 -22.49M-2.74 -23.4Q-3.36 -23.37 -3.97 -23.28" fill="none" stroke="#3e12b6" stroke-width="0.7" stroke-linecap="round"/></svg>
