<svg xmlns="http://www.w3.org/2000/svg" viewBox="-24.2 -35.4 50.5 53" width="202" height="212"><path d="M2.39 -16.72Q1.33 -17.33 0.25 -17.88Q0 -24.09 0.25 -30.31Q1.22 -29.62 2.28 -29.08Q1.9 -22.9 2.39 -16.72Z" fill="#ebe7dd" stroke="#3e12b6" stroke-width="1.2" stroke-linejoin="round"/><path d="M5.3 -17.61Q3.81 -17.28 2.39 -16.72Q1.9 -22.9 2.28 -29.08Q3.88 -29.25 5.44 -29.65Q5.76 -23.63 5.3 -17.61Z" fill="#ebe7dd" stroke="#3e12b6" stroke-width="1.2" stroke-linejoin="round"/><path d="M2.63 -28.69Q1.39 -29.3 0.25 -30.08Q1.55 -30.68 2.74 -31.45Q4.01 -30.69 5.28 -29.93Q4.01 -29.21 2.63 -28.69Z" fill="#ebe7dd" stroke="#3e12b6" stroke-width="1.2" stroke-linejoin="round"/><path d="M-4.15 11.38Q-12.48 7.96 -20.2 3.32Q-19.54 -1.82 -19.45 -7Q-12.17 -2.63 -5.05 1.99Q-4.23 6.65 -4.15 11.38ZM-20.2 3.32l-0.68 -0.34M-4.15 11.38l0.5 0.25M-19.45 -7l0.05 -0.66M-20.2 3.32l-0.06 0.79M-5.05 1.99l0.37 0.23M-19.45 -7l-1.09 -0.68M-4.15 11.38l0.05 0.57M-5.05 1.99l-0.08 -0.81" fill="#ebe7dd" stroke="#3e12b6" stroke-width="1.2" stroke-linejoin="round"/><path d="M18.72 -1.12Q7.76 5.95 -4.09 11.41Q-4.41 6.5 -5.49 1.71Q7.49 -4.63 20.4 -11.09Q19.63 -6.1 18.72 -1.12ZM-4.09 11.41l-1.39 0.76M18.72 -1.12l1.74 -0.96M-5.49 1.71l-0.04 -0.25M-4.09 11.41l0.04 0.3M20.4 -11.09l1.78 -0.88M-5.49 1.71l-2.23 1.1M18.72 -1.12l-0.07 0.42M20.4 -11.09l0.08 -0.47" fill="#ebe7dd" stroke="#3e12b6" stroke-width="1.2" stroke-linejoin="round"/><path d="M-4.21 11.66Q-12.34 7.13 -20.18 2.09" fill="none" stroke="#3e12b6" stroke-width="1.2" stroke-linecap="round"/><path d="M20.32 -3.84Q6.78 3.82 -5.38 13.52" fill="none" stroke="#3e12b6" stroke-width="1.2" stroke-linecap="round"/><path d="M-12 -18.48Q-8.45 -8.36 -5.24 1.87Q-12.25 -2.77 -19.41 -7.15Q-15.72 -12.82 -12 -18.48ZM-5.24 1.87l0.17 0.52M-12 -18.48l-0.19 -0.58M-19.41 -7.15l-0.91 -0.58M-5.24 1.87l1.22 0.78M-12 -18.48l0.2 -0.3M-19.41 -7.15l-0.56 0.86" fill="#ebe7dd" stroke="#3e12b6" stroke-width="1.2" stroke-linejoin="round"/><path d="M15.72 -2.03Q14.27 -1.38 12.89 -0.61Q12.77 -2.7 12.95 -4.78Q14.41 -5.51 15.78 -6.39Q15.73 -4.21 15.72 -2.03" fill="#3e12b6" stroke="#3e12b6" stroke-width="0.8" stroke-linecap="round" stroke-linejoin="round"/><path d="M8.91 2.09Q7.61 2.64 6.35 3.28Q6.33 1.09 6.36 -1.11Q7.64 -1.77 8.94 -2.37Q8.92 -0.14 8.91 2.09" fill="#3e12b6" stroke="#3e12b6" stroke-width="0.8" stroke-linecap="round" stroke-linejoin="round"/><path d="M2.27 5.63Q1.02 6.36 -0.22 7.09Q-0.38 4.95 -0.26 2.8Q0.96 2.05 2.19 1.33Q2.1 3.49 2.27 5.63" fill="#3e12b6" stroke="#3e12b6" stroke-width="0.8" stroke-linecap="round" stroke-linejoin="round"/><path d="M-6.49 6.99Q-7.43 6.35 -8.42 5.79Q-8.47 4.09 -8.42 2.39Q-7.39 2.9 -6.45 3.56Q-6.4 5.27 -6.49 6.99" fill="#3e12b6" stroke="#3e12b6" stroke-width="0.8" stroke-linecap="round" stroke-linejoin="round"/><path d="M-11.17 4.39Q-12.02 3.75 -12.96 3.24Q-12.75 1.5 -12.81 -0.24Q-11.89 0.36 -10.89 0.82Q-11.13 2.6 -11.17 4.39" fill="#3e12b6" stroke="#3e12b6" stroke-width="0.8" stroke-linecap="round" stroke-linejoin="round"/><path d="M-15.3 1.73Q-16.32 1.3 -17.28 0.74Q-17.24 -1.05 -17.29 -2.85Q-16.31 -2.17 -15.32 -1.5Q-15.43 0.11 -15.3 1.73" fill="#3e12b6" stroke="#3e12b6" stroke-width="0.8" stroke-linecap="round" stroke-linejoin="round"/><path d="M-4.1 10.52Q-11.6 6.15 -18.79 1.3" fill="none" stroke="#9b9486" stroke-width="1" stroke-linecap="round"/><path d="M-3.37 2.19Q-11.2 -1.96 -19.17 -5.82" fill="none" stroke="#9b9486" stroke-width="1" stroke-linecap="round"/><path d="M-4.26 9.07Q-4.9 8.77 -5.49 8.37" fill="none" stroke="#9b9486" stroke-width="1" stroke-linecap="round"/><path d="M-18.39 0.86Q-18.99 0.47 -19.6 0.1" fill="none" stroke="#9b9486" stroke-width="1" stroke-linecap="round"/><path d="M-4.3 7.3Q-4.84 6.95 -5.41 6.65" fill="none" stroke="#9b9486" stroke-width="1" stroke-linecap="round"/><path d="M-18.43 -0.89Q-18.98 -1.24 -19.56 -1.54" fill="none" stroke="#9b9486" stroke-width="1" stroke-linecap="round"/><path d="M-4.27 5.62Q-4.86 5.23 -5.46 4.87" fill="none" stroke="#9b9486" stroke-width="1" stroke-linecap="round"/><path d="M-18.41 -2.65Q-19.07 -2.93 -19.68 -3.3" fill="none" stroke="#9b9486" stroke-width="1" stroke-linecap="round"/><path d="M-4.3 3.79Q-4.84 3.43 -5.43 3.15" fill="none" stroke="#9b9486" stroke-width="1" stroke-linecap="round"/><path d="M-18.46 -4.34Q-19.02 -4.67 -19.57 -5.01" fill="none" stroke="#9b9486" stroke-width="1" stroke-linecap="round"/><path d="M-5.76 1.5Q-8.4 -7.34 -12.33 -15.7Q-15.09 -11.21 -18.1 -6.88" fill="none" stroke="#9b9486" stroke-width="1" stroke-linecap="round"/><path d="M-7.94 -1.61Q-8.81 -2.11 -9.72 -2.54Q-9.61 -3.96 -9.69 -5.37Q-8.92 -4.78 -8.11 -4.26Q-8.08 -2.93 -7.94 -1.61" fill="#3e12b6" stroke="#3e12b6" stroke-width="0.8" stroke-linecap="round" stroke-linejoin="round"/><path d="M-14.23 -5.24Q-15.05 -5.75 -15.92 -6.17Q-16.01 -7.48 -15.91 -8.78Q-15 -8.29 -14.06 -7.84Q-14.13 -6.54 -14.23 -5.24" fill="#3e12b6" stroke="#3e12b6" stroke-width="0.8" stroke-linecap="round" stroke-linejoin="round"/><path d="M-11.22 -9.51Q-11.96 -9.93 -12.66 -10.42Q-12.62 -11.6 -12.65 -12.79Q-11.88 -12.38 -11.13 -11.91Q-11.11 -10.71 -11.22 -9.51" fill="#3e12b6" stroke="#3e12b6" stroke-width="0.8" stroke-linecap="round" stroke-linejoin="round"/><path d="M-14.05 -16.43Q-0.18 -24.35 14.18 -31.33Q18.47 -21.9 22.25 -12.24Q9.15 -5.02 -3.23 3.36Q-8.47 -6.63 -14.05 -16.43ZM14.18 -31.33l0.71 -0.37M-14.05 -16.43l-2.32 1.23M22.25 -12.24l0.3 0.71M14.18 -31.33l-0.7 -1.66M-3.23 3.36l-1.49 0.91M22.25 -12.24l1.18 -0.72M-14.05 -16.43l-0.45 -0.82M-3.23 3.36l0.51 0.93" fill="#ebe7dd" stroke="#3e12b6" stroke-width="1.2" stroke-linejoin="round"/><path d="M-11.91 -14.04Q-7.83 -5.54 -3.41 2.78M-9.66 -16.84Q-6.3 -7.88 -2.7 0.98M-8.64 -17.96Q-4.23 -9.33 -0.66 -0.32M-6.89 -18.81Q-3.03 -8.9 1.73 0.6M-4.68 -19.52Q-0.94 -10.39 2.46 -1.12M-2.64 -20.28Q0.66 -11.41 4.25 -2.64M-0.68 -19.83Q2.03 -11.69 5.12 -3.69M0.69 -22.58Q4.63 -13.31 7.63 -3.7M1.42 -23.04Q6.07 -14.43 9.5 -5.27M3.39 -23.79Q7.73 -14.86 10.97 -5.47M5 -24.13Q8.93 -15.61 11.84 -6.68M6.87 -25.22Q10.51 -16.83 14 -8.38M7.98 -25.64Q12.56 -17.94 15.94 -9.65M10.26 -28.09Q14.32 -18.47 18.45 -8.88M12.32 -29.04Q15.36 -19.2 19.79 -9.9M14.35 -27.91Q17.92 -20.06 21.68 -12.29" fill="none" stroke="#3e12b6" stroke-width="0.7" stroke-linecap="round"/></svg>
